<?xml version="1.0" standalone="no"?>
<!DOCTYPE svg PUBLIC "-//W3C//DTD SVG 20010904//EN"
 "http://www.w3.org/TR/2001/REC-SVG-20010904/DTD/svg10.dtd">
<svg version="1.0" xmlns="http://www.w3.org/2000/svg"
 width="1024.000000pt" height="1024.000000pt" viewBox="0 0 1024.000000 1024.000000"
 preserveAspectRatio="xMidYMid meet">

<g transform="translate(0.000000,1024.000000) scale(0.100000,-0.100000)"
fill="#000000" stroke="none">
<path d="M0 5120 l0 -5120 5120 0 5120 0 0 5120 0 5120 -5120 0 -5120 0 0
-5120z m5213 3133 c41 -76 159 -304 262 -508 103 -203 202 -397 220 -430 18
-33 114 -220 215 -415 100 -195 192 -373 205 -395 28 -49 109 -206 300 -575
81 -157 180 -346 220 -420 40 -74 130 -245 201 -380 70 -135 156 -299 190
-365 35 -66 63 -132 64 -146 0 -26 -1 -26 -97 -32 -54 -4 -189 -7 -300 -7
l-201 0 -80 153 c-44 83 -118 224 -164 312 -47 88 -133 252 -193 365 -92 175
-243 458 -251 468 -3 5 -19 -6 -349 -223 -159 -106 -429 -283 -600 -395 -170
-112 -393 -258 -495 -325 -102 -67 -264 -173 -360 -236 l-175 -114 -310 0
c-170 0 -322 3 -337 8 -16 4 -28 14 -28 24 0 9 71 150 159 312 87 163 217 411
289 551 233 457 527 1024 879 1695 101 191 335 641 471 905 126 244 164 310
177 310 7 0 47 -62 88 -137z m-2085 -4330 c6 -16 46 -127 90 -248 115 -318
429 -1177 437 -1197 6 -14 2 -16 -22 -14 -15 2 -87 4 -159 5 l-131 1 -55 153
-55 152 -295 3 c-229 2 -298 -1 -306 -10 -8 -11 -30 -70 -104 -280 l-10 -28
-150 0 c-139 0 -150 1 -143 18 8 20 344 955 452 1260 l76 212 182 0 183 0 10
-27z m1049 -303 c1 -179 5 -324 8 -323 7 4 204 228 280 319 33 40 110 131 170
203 l110 130 173 0 c94 1 172 -2 172 -5 0 -9 -68 -89 -205 -244 -104 -117
-289 -329 -333 -382 -13 -15 -6 -29 64 -130 106 -154 417 -590 471 -660 24
-32 42 -58 39 -58 -3 0 -84 -1 -178 -1 l-173 -1 -213 304 c-118 166 -217 304
-221 306 -4 1 -42 -35 -84 -82 l-77 -84 0 -223 0 -224 -155 0 -155 0 0 743 0
743 153 -3 152 -3 2 -325z m2148 -235 c111 -308 232 -641 268 -740 36 -99 65
-180 64 -180 -1 0 -71 2 -156 5 l-154 5 -52 140 c-28 77 -54 146 -59 153 -9
15 -540 18 -579 3 -20 -8 -33 -35 -77 -160 l-54 -151 -148 0 c-81 0 -148 2
-148 4 0 2 72 206 161 452 88 247 205 573 259 724 54 151 101 283 105 293 7
16 23 17 187 15 l180 -3 203 -560z m1158 550 c190 -28 339 -96 442 -199 105
-106 161 -208 200 -365 32 -133 3 -428 -50 -491 -6 -8 -22 -36 -34 -62 -14
-29 -55 -78 -111 -131 -69 -66 -108 -94 -182 -130 -165 -81 -287 -99 -641 -95
l-237 3 0 738 c0 405 0 739 0 742 0 13 520 4 613 -10z"/>
<path d="M4975 6908 c-123 -244 -450 -876 -670 -1298 -45 -85 -80 -157 -79
-159 2 -2 98 59 214 135 116 77 286 187 378 246 92 58 219 140 282 181 63 40
169 107 235 149 217 135 244 153 245 162 0 5 -49 100 -109 210 -60 111 -151
280 -202 376 -141 264 -144 270 -149 270 -3 0 -68 -123 -145 -272z"/>
<path d="M2881 3508 c-23 -68 -69 -197 -101 -288 -32 -90 -58 -166 -56 -167 2
-2 95 -2 207 -1 l205 3 -101 287 c-55 158 -103 288 -106 288 -4 0 -25 -55 -48
-122z"/>
<path d="M5922 3609 c-5 -13 -35 -98 -67 -189 -32 -91 -75 -210 -95 -265 l-37
-100 205 -3 c113 -1 206 -1 208 0 3 4 -194 569 -201 576 -2 3 -8 -6 -13 -19z"/>
<path d="M7162 3203 l3 -478 145 3 c212 4 306 38 408 146 55 58 93 126 111
200 16 66 14 219 -3 284 -41 152 -175 272 -343 307 -38 8 -124 15 -196 15
l-127 0 2 -477z"/>
</g>
</svg>
