<?xml version="1.0" standalone="no"?>
<!DOCTYPE svg PUBLIC "-//W3C//DTD SVG 20010904//EN"
 "http://www.w3.org/TR/2001/REC-SVG-20010904/DTD/svg10.dtd">
<svg version="1.0" xmlns="http://www.w3.org/2000/svg"
 width="500.000000pt" height="250.000000pt" viewBox="0 0 500.000000 250.000000"
 preserveAspectRatio="xMidYMid meet">

<g transform="translate(0.000000,250.000000) scale(0.100000,-0.100000)"
fill="#000000" stroke="none">
<path d="M639 1847 c-19 -12 -43 -39 -54 -59 -14 -27 -32 -42 -74 -59 -112
-46 -175 -138 -188 -275 -5 -57 -8 -62 -40 -79 -108 -59 -172 -205 -144 -334
10 -47 9 -54 -11 -81 -27 -38 -30 -113 -4 -152 21 -32 73 -58 113 -57 21 1 17
3 -16 10 -113 22 -141 132 -58 226 27 30 28 35 11 29 -19 -6 -22 -1 -27 46
-13 104 20 196 92 261 72 65 165 100 299 112 l72 7 0 -27 c0 -41 -16 -62 -55
-69 -51 -10 -127 -44 -121 -55 3 -5 -2 -8 -11 -7 -10 0 -18 -4 -18 -11 0 -6
-4 -15 -9 -20 -5 -5 -6 -3 -2 5 4 6 3 12 -2 12 -11 0 -46 -39 -62 -68 -11 -22
-10 -23 9 -13 28 15 27 16 57 -39 15 -27 31 -50 37 -50 5 0 26 14 47 30 37 29
38 32 27 65 -13 43 -8 49 33 40 35 -8 91 -59 115 -106 23 -43 30 -121 15 -149
l-13 -24 -19 24 -19 23 -49 -23 c-28 -13 -50 -27 -50 -32 0 -5 7 -22 15 -38
13 -25 13 -29 -1 -34 -22 -9 -24 -8 -24 9 0 14 -3 14 -30 0 -16 -9 -30 -14
-30 -13 0 2 9 36 19 76 20 78 14 99 -17 55 -31 -45 -35 -60 -8 -28 l25 29 -19
-74 c-10 -40 -26 -78 -34 -82 -9 -5 -16 -15 -16 -23 0 -16 -34 -38 -44 -28 -3
3 -6 1 -6 -5 0 -7 6 -12 14 -12 15 0 66 39 52 40 -6 0 -2 6 8 13 16 11 25 11
55 1 20 -7 55 -13 78 -14 36 0 47 -6 86 -47 25 -26 44 -50 41 -54 -2 -4 -25
-17 -51 -29 -101 -48 -232 -26 -311 51 -18 18 -35 29 -38 26 -9 -9 45 -54 101
-85 42 -23 62 -27 130 -27 68 0 88 5 137 29 l57 29 35 -21 c44 -26 129 -52
171 -52 58 0 134 30 189 75 39 31 60 42 75 38 35 -9 110 26 132 61 23 38 24
101 2 141 -12 22 -17 56 -17 125 -1 76 -6 105 -24 145 -27 59 -70 107 -131
146 -42 27 -45 32 -48 80 -4 73 -18 119 -53 172 -34 50 -103 101 -162 119 -28
8 -44 22 -63 53 -25 44 -74 75 -118 75 -13 0 -39 -10 -58 -23z m132 -18 c15
-10 34 -37 43 -59 33 -82 13 -168 -49 -215 -17 -14 -32 -30 -33 -37 -1 -7 -5
-28 -8 -47 -6 -30 -4 -33 10 -28 32 12 56 -10 56 -52 l0 -38 -67 -6 c-41 -3
-73 -1 -80 5 -7 6 -13 33 -13 60 l0 50 -55 -4 c-52 -3 -55 -2 -61 24 -3 15 -2
33 1 40 4 7 -6 -3 -21 -22 -43 -52 -63 -70 -76 -70 -8 0 -9 3 -3 8 12 8 38 53
33 57 -6 5 -47 25 -52 25 -2 0 -10 -25 -16 -55 -16 -78 -34 -61 -25 24 8 76
30 123 77 167 31 30 107 74 127 74 5 0 3 -21 -5 -47 -14 -46 -11 -83 6 -83 5
0 7 -6 4 -13 -5 -15 113 -147 132 -147 15 0 4 49 -21 86 -28 43 -34 25 -8 -23
l26 -48 -57 60 c-33 36 -54 67 -52 77 2 9 -2 19 -10 22 -18 7 -18 34 2 110 30
118 113 162 195 105z m139 -119 c48 -25 112 -79 105 -90 -3 -4 2 -11 11 -14 8
-3 12 -10 9 -16 -3 -5 -2 -10 3 -10 5 0 7 -12 4 -28 -2 -20 -14 -32 -41 -45
l-38 -19 19 -66 c20 -74 15 -152 -16 -226 -22 -52 -39 -37 -19 17 10 26 16 76
17 132 1 82 -1 94 -26 132 -15 23 -32 44 -38 48 -5 3 -10 29 -10 56 0 28 -6
62 -14 77 -22 44 -29 72 -16 72 6 0 28 -9 50 -20z m137 -267 c-2 -16 -4 -5 -4
22 0 28 2 40 4 28 2 -13 2 -35 0 -50z m-129 -69 c34 -9 29 -36 -5 -28 -40 10
-73 23 -73 29 0 7 50 6 78 -1z m-358 -93 c81 -83 252 -75 317 15 17 23 22 25
42 14 14 -7 20 -17 17 -27 -3 -8 -6 -19 -6 -23 0 -5 -19 -14 -42 -21 -109 -29
-186 -186 -143 -291 11 -26 -40 -48 -61 -26 -13 12 -14 20 -5 36 14 27 14 95
-1 143 -21 73 -104 149 -161 149 -43 0 -46 69 -3 70 4 0 25 -17 46 -39z m591
22 c13 -16 12 -17 -3 -4 -10 7 -18 15 -18 17 0 8 8 3 21 -13z m-22 -95 c6 -18
6 -28 0 -28 -5 0 -9 4 -9 9 0 4 -11 24 -24 44 -13 19 -21 38 -18 42 8 8 39
-32 51 -67z m107 0 c3 -10 12 -18 20 -18 10 0 13 -7 8 -27 -4 -22 -3 -25 5
-13 8 11 11 2 11 -37 0 -50 -1 -53 -25 -53 -15 0 -40 7 -58 16 -23 12 -32 13
-35 5 -6 -18 -28 17 -37 59 -4 19 -5 32 -1 29 3 -3 24 10 46 29 38 35 39 37
22 56 -12 15 -9 14 10 -3 15 -13 30 -32 34 -43z m-166 2 c0 -5 -2 -10 -4 -10
-3 0 -8 5 -11 10 -3 6 -1 10 4 10 6 0 11 -4 11 -10z m-160 -7 c-1 -18 -18 -35
-24 -24 -4 6 -4 16 -1 21 7 12 25 13 25 3z m155 -33 c18 -8 17 -9 -7 -9 -16
-1 -28 4 -28 9 0 12 8 12 35 0z m-129 -51 c39 -24 41 -31 15 -73 l-20 -31 32
-92 c34 -98 77 -153 119 -153 49 0 51 -16 7 -48 -61 -45 -130 -66 -196 -59
-30 3 -57 8 -60 11 -3 2 -7 24 -10 47 -4 29 -15 50 -32 65 -30 26 -25 38 10
27 13 -5 49 -6 79 -2 30 3 48 7 40 8 -8 1 -26 10 -40 21 l-25 19 28 50 28 50
-49 25 -49 25 -23 -24 c-29 -31 -40 -24 -40 25 0 37 26 120 37 120 3 0 20 -9
38 -20 l33 -20 16 25 c20 30 20 30 62 4z m248 -80 c53 -15 94 -47 117 -91 23
-45 24 -79 4 -118 -59 -114 -285 -47 -285 84 0 14 -13 41 -30 59 -16 19 -30
38 -30 42 0 4 22 5 49 2 36 -4 53 -2 61 8 10 12 29 19 65 24 6 0 28 -4 49 -10z
m-354 -83 c0 -8 -11 -28 -25 -44 -19 -23 -22 -32 -12 -42 10 -10 9 -11 -3 -4
-8 5 -21 9 -27 9 -21 0 -15 18 19 58 35 39 48 46 48 23z m-250 -116 c0 -5 -5
-10 -11 -10 -5 0 -7 5 -4 10 3 6 8 10 11 10 2 0 4 -4 4 -10z m275 0 c3 -5 -1
-10 -10 -10 -9 0 -13 5 -10 10 3 6 8 10 10 10 2 0 7 -4 10 -10z m-96 -36 c14
-12 -19 -1 -35 12 -18 14 -18 14 6 3 14 -6 27 -13 29 -15z"/>
<path d="M770 1767 c0 -54 -43 -110 -97 -128 -30 -9 -36 -9 -48 8 -14 17 -14
17 -15 -6 0 -14 12 -38 27 -53 76 -80 192 13 169 135 -3 19 -13 42 -21 53 -14
18 -14 18 -15 -9z"/>
<path d="M722 1423 c24 -3 38 -10 41 -21 3 -12 5 -11 6 6 1 20 -3 22 -41 20
l-43 -1 37 -4z"/>
<path d="M745 1370 c-19 -8 -19 -9 3 -9 12 -1 22 4 22 9 0 6 -1 10 -2 9 -2 0
-12 -4 -23 -9z"/>
<path d="M856 1044 c-7 -19 0 -34 17 -34 9 0 8 3 -1 8 -7 5 -10 16 -6 25 3 9
4 17 1 17 -3 0 -8 -7 -11 -16z"/>
<path d="M900 1015 c-7 -9 -8 -15 -2 -15 5 0 12 7 16 15 3 8 4 15 2 15 -2 0
-9 -7 -16 -15z"/>
<path d="M1105 1015 c6 -2 27 -6 48 -10 33 -5 36 -9 31 -30 -5 -19 -1 -24 18
-29 13 -2 8 -4 -12 -3 -33 2 -36 0 -32 -23 4 -27 -29 -70 -53 -70 -25 0 -17
-19 18 -40 19 -12 50 -20 75 -20 35 0 49 6 74 30 27 27 30 36 25 71 -11 81
-68 129 -152 128 -27 0 -45 -2 -40 -4z"/>
<path d="M3760 1418 l0 -63 -54 0 c-61 0 -90 -18 -112 -72 -30 -70 -9 -176 41
-209 12 -8 35 -15 51 -15 16 0 58 1 93 1 l64 0 -7 38 c-3 20 -6 115 -6 210 l0
172 -35 0 -35 0 0 -62z m-19 -128 c16 -9 19 -22 19 -78 0 -72 -10 -92 -45 -92
-34 0 -45 20 -45 84 0 41 5 65 17 78 19 21 27 22 54 8z"/>
<path d="M1620 1443 c0 -10 -7 -81 -15 -158 -8 -77 -15 -159 -15 -183 l0 -43
38 3 37 3 7 105 c4 58 9 114 10 125 2 11 19 -38 38 -108 l34 -128 36 3 35 3
34 118 c35 121 51 135 51 46 0 -25 3 -74 6 -108 l7 -61 38 0 c31 0 39 4 38 18
0 9 -8 98 -17 197 l-17 180 -52 3 -51 3 -17 -58 c-9 -32 -25 -89 -35 -127
l-17 -69 -21 79 c-12 44 -27 100 -34 127 l-12 47 -53 0 c-44 0 -53 -3 -53 -17z"/>
<path d="M2810 1425 l0 -35 50 0 50 0 0 -165 0 -165 40 0 40 0 0 165 0 165 49
0 c42 0 49 3 55 23 13 48 14 47 -139 47 l-145 0 0 -35z"/>
<path d="M2390 1431 c-19 -5 -26 -14 -28 -39 -2 -20 -9 -32 -18 -32 -9 0 -14
-11 -14 -30 0 -20 5 -30 15 -30 12 0 15 -17 15 -96 0 -107 7 -128 48 -142 30
-10 99 -2 95 11 -2 4 -3 13 -3 21 0 9 -12 16 -27 18 l-28 3 -3 93 c-3 92 -3
92 22 92 23 0 36 16 36 46 0 9 -11 14 -30 14 -28 0 -30 2 -30 40 0 42 -4 44
-50 31z"/>
<path d="M497 1370 c-26 -9 -64 -31 -85 -48 l-37 -32 55 25 c30 14 78 30 107
36 29 7 54 18 57 25 7 19 -35 16 -97 -6z"/>
<path d="M2121 1347 c-44 -22 -65 -62 -69 -130 -3 -69 15 -112 64 -143 33 -22
109 -22 152 0 36 18 37 23 18 49 -13 17 -16 17 -45 3 -16 -9 -37 -16 -46 -16
-18 0 -65 43 -65 59 0 6 37 11 88 13 l87 3 -4 45 c-4 53 -22 93 -53 114 -27
19 -94 21 -127 3z m97 -79 c3 -27 2 -28 -42 -28 l-45 0 11 31 c9 26 15 30 42
27 25 -2 32 -8 34 -30z"/>
<path d="M2590 1347 c-48 -23 -50 -26 -38 -52 13 -29 15 -30 57 -9 43 22 81
12 81 -21 0 -23 -4 -25 -40 -25 -107 0 -159 -93 -91 -161 33 -33 92 -40 126
-15 16 12 22 12 43 -2 22 -14 25 -14 45 6 17 17 19 24 9 34 -8 8 -12 44 -12
100 0 97 -11 130 -47 147 -31 14 -101 13 -133 -2z m100 -192 c0 -29 -4 -36
-27 -41 -19 -5 -30 -2 -40 11 -7 11 -13 22 -13 26 0 16 33 39 56 39 21 0 24
-5 24 -35z"/>
<path d="M3121 1353 c-20 -4 -22 -9 -17 -35 3 -17 6 -82 6 -144 l0 -114 40 0
40 0 0 109 c0 114 3 121 49 121 11 0 21 12 28 35 11 34 10 35 -16 35 -14 0
-36 -7 -48 -15 -19 -13 -22 -13 -27 0 -5 15 -12 16 -55 8z"/>
<path d="M3331 1340 c-42 -19 -43 -21 -28 -43 16 -24 26 -25 73 -6 40 16 64 6
64 -26 0 -22 -4 -25 -34 -25 -53 0 -95 -19 -112 -52 -19 -37 -12 -88 15 -112
29 -26 95 -32 126 -12 23 15 27 15 41 1 20 -20 27 -19 49 5 14 16 16 23 7 32
-8 8 -12 48 -12 109 0 122 -11 140 -91 146 -40 3 -66 -2 -98 -17z m109 -185
c0 -28 -4 -36 -24 -41 -33 -8 -46 2 -46 36 0 30 10 38 48 39 19 1 22 -4 22
-34z"/>
<path d="M3942 1326 c-37 -34 -37 -35 -37 -115 0 -75 2 -82 30 -111 35 -36 87
-52 135 -41 51 11 82 30 74 44 -20 35 -25 37 -55 22 -38 -20 -65 -19 -89 5
-40 40 -28 50 65 50 l85 0 0 40 c0 89 -47 140 -130 140 -32 0 -48 -7 -78 -34z
m116 -38 c7 -7 12 -20 12 -30 0 -15 -8 -18 -45 -18 -46 0 -53 7 -35 41 12 21
50 25 68 7z"/>
<path d="M4221 1353 c-21 -4 -23 -9 -17 -41 3 -21 6 -86 6 -145 l0 -108 38 3
37 3 5 110 5 110 31 3 c31 3 43 20 44 60 0 17 -41 15 -68 -4 -20 -14 -23 -14
-28 0 -6 16 -10 17 -53 9z"/>
<path d="M475 1089 c-4 -6 -5 -12 -2 -15 2 -3 7 2 10 11 7 17 1 20 -8 4z"/>
<path d="M276 1081 c-3 -5 -14 -7 -24 -5 -9 2 -28 -5 -42 -16 -14 -11 -19 -20
-12 -20 7 0 10 -6 7 -12 -4 -7 3 0 15 15 17 22 25 25 36 16 11 -9 15 -8 20 5
5 13 15 15 43 11 29 -4 31 -3 11 4 -34 12 -48 13 -54 2z"/>
<path d="M400 1058 c41 -10 43 -12 20 -19 l-25 -7 25 -1 c28 -1 57 14 44 22
-5 3 -31 8 -59 11 l-50 5 45 -11z"/>
<path d="M368 1023 c7 -3 16 -2 19 1 4 3 -2 6 -13 5 -11 0 -14 -3 -6 -6z"/>
<path d="M336 979 c9 -18 17 -56 17 -86 2 -53 2 -53 20 -32 26 32 22 94 -8
124 -34 35 -49 32 -29 -6z"/>
<path d="M318 773 c7 -3 16 -2 19 1 4 3 -2 6 -13 5 -11 0 -14 -3 -6 -6z"/>
</g>
</svg>
