<?xml version="1.0" standalone="no"?>
<!DOCTYPE svg PUBLIC "-//W3C//DTD SVG 20010904//EN"
 "http://www.w3.org/TR/2001/REC-SVG-20010904/DTD/svg10.dtd">
<svg version="1.0" xmlns="http://www.w3.org/2000/svg"
 width="439.000000pt" height="115.000000pt" viewBox="0 0 439.000000 115.000000"
 preserveAspectRatio="xMidYMid meet">

<g transform="translate(0.000000,115.000000) scale(0.100000,-0.100000)"
fill="#000000" stroke="none">
<path d="M504 1111 c-17 -10 -38 -34 -47 -53 -12 -26 -29 -39 -71 -57 -98 -40
-166 -145 -166 -257 0 -39 -3 -45 -32 -60 -50 -26 -106 -93 -124 -148 -13 -37
-15 -69 -11 -131 3 -45 3 -86 -1 -91 -4 -5 15 13 42 39 33 33 54 46 65 42 13
-5 14 -4 3 7 -10 10 -17 10 -39 -2 -14 -8 -25 -19 -24 -24 4 -15 -23 -26 -31
-13 -4 7 -8 41 -8 77 0 110 54 195 155 247 52 27 164 53 228 53 36 0 37 -1 37
-34 0 -33 -2 -35 -55 -51 -90 -26 -169 -78 -197 -128 -8 -16 -7 -17 10 -8 19
10 42 -2 42 -21 0 -4 8 -21 18 -38 l19 -30 41 30 c38 27 41 32 32 56 -15 38
-13 44 15 44 29 0 99 -59 121 -101 14 -28 20 -130 8 -142 -4 -3 -18 2 -31 13
-24 18 -25 18 -61 -2 -20 -12 -39 -23 -41 -24 -2 -2 4 -22 13 -45 14 -33 14
-44 5 -50 -19 -11 -29 -1 -29 29 -1 25 -2 25 -14 10 -7 -10 -16 -18 -19 -18
-12 0 -12 37 -1 83 15 57 4 59 -35 6 l-25 -34 26 24 27 23 -14 -58 c-8 -33
-14 -62 -15 -66 0 -5 -8 -8 -18 -8 -11 0 -18 -7 -18 -20 0 -11 4 -20 8 -20 4
0 8 5 8 11 0 7 8 17 17 24 13 10 23 10 50 -1 18 -8 44 -14 57 -14 20 0 24 4
19 17 -4 10 8 2 26 -17 18 -19 45 -47 61 -61 l28 -27 -40 -22 c-23 -13 -69
-26 -111 -30 l-72 -9 70 3 c48 2 85 11 116 26 l46 23 58 -28 c106 -52 219 -42
301 29 29 24 52 34 88 38 59 7 97 33 115 82 13 34 12 42 -7 89 -17 39 -22 73
-22 134 0 57 -6 94 -19 125 -19 44 -92 120 -136 140 -21 9 -25 18 -25 53 0
116 -74 225 -178 261 -42 15 -57 26 -69 53 -19 40 -66 71 -108 71 -16 0 -44
-9 -61 -19z m118 -11 c80 -62 76 -216 -7 -260 -14 -7 -25 -20 -25 -29 0 -9 -3
-26 -6 -38 -5 -18 -1 -22 22 -25 20 -2 31 -11 38 -29 17 -49 4 -59 -74 -59
l-72 0 3 48 3 47 -52 3 c-48 3 -52 5 -60 34 l-8 30 -19 -36 c-21 -39 -51 -59
-42 -29 2 10 8 26 12 36 6 13 3 16 -9 11 -14 -6 -21 5 -17 29 0 4 -1 7 -4 7
-8 0 -36 -73 -30 -78 7 -7 -15 -32 -27 -32 -14 0 -1 85 21 135 28 64 100 127
156 137 11 1 27 19 36 39 34 73 109 101 161 59z m168 -137 c35 -23 74 -75 76
-103 1 -8 3 -19 5 -25 2 -5 -6 -20 -18 -31 -15 -16 -24 -19 -32 -11 -17 17
-24 1 -11 -23 22 -41 25 -165 5 -217 -10 -27 -22 -52 -27 -58 -11 -10 -10 -8
12 115 14 75 5 126 -34 182 -13 19 -27 57 -31 84 -4 27 -13 64 -21 83 -8 18
-14 37 -14 42 0 11 43 -8 90 -38z m87 -200 c-3 -10 -5 -4 -5 12 0 17 2 24 5
18 2 -7 2 -21 0 -30z m-128 -79 c18 -4 31 -13 31 -21 0 -10 -6 -13 -17 -8 -10
3 -30 9 -45 12 -16 3 -28 9 -28 14 0 11 16 11 59 3z m-318 -78 c16 -19 47 -40
67 -47 79 -26 186 -3 219 47 17 26 33 30 50 13 19 -19 2 -46 -37 -58 -91 -27
-164 -168 -131 -254 7 -19 5 -26 -11 -36 -17 -11 -23 -10 -35 2 -13 12 -13 21
-4 50 26 79 -26 193 -109 235 -25 12 -50 20 -57 17 -7 -2 -13 2 -13 9 0 8 -3
21 -6 29 -3 10 2 17 13 20 10 3 19 5 21 6 1 0 16 -14 33 -33z m19 19 c7 -9 8
-15 2 -15 -5 0 -12 7 -16 15 -3 8 -4 15 -2 15 2 0 9 -7 16 -15z m550 -25 c0
-5 -2 -10 -4 -10 -3 0 -8 5 -11 10 -3 6 -1 10 4 10 6 0 11 -4 11 -10z m-66
-26 c8 -3 12 -12 9 -21 -4 -11 -2 -14 5 -9 8 5 10 1 5 -11 -6 -15 -4 -16 9 -5
29 23 76 32 82 15 3 -8 10 -12 15 -9 13 8 21 -18 14 -45 -4 -15 -3 -20 5 -15
8 5 12 -5 12 -33 0 -38 -2 -41 -28 -41 -15 0 -38 7 -50 16 -12 8 -26 13 -31
10 -15 -10 -33 22 -30 53 2 16 -3 37 -12 48 -16 18 -32 53 -25 53 3 0 11 -3
20 -6z m-39 -34 c3 -5 1 -10 -4 -10 -6 0 -11 5 -11 10 0 6 2 10 4 10 3 0 8 -4
11 -10z m-151 -25 c-4 -8 -10 -12 -15 -9 -11 6 -2 24 11 24 5 0 7 -7 4 -15z
m149 -22 c-7 -2 -19 -2 -25 0 -7 3 -2 5 12 5 14 0 19 -2 13 -5z m-236 -27 c-3
-8 1 -20 10 -28 14 -11 15 -10 10 12 -6 21 -5 21 7 -4 14 -30 31 -21 20 11 -4
13 -3 15 4 4 7 -9 12 -10 16 -2 11 17 32 13 61 -11 l26 -23 -21 -38 c-18 -33
-19 -40 -6 -65 7 -15 21 -52 31 -81 24 -74 63 -111 116 -111 22 0 22 0 3 -21
-31 -35 -113 -69 -168 -69 -36 0 -55 6 -77 24 -19 16 -25 26 -16 30 9 5 9 7 0
12 -7 3 -13 10 -13 16 0 5 -7 16 -15 25 -23 23 -12 27 63 25 45 -1 60 2 47 7
-45 19 -50 38 -26 88 12 25 21 47 19 48 -2 2 -21 10 -42 19 -38 16 -40 16 -63
-6 -12 -12 -26 -18 -30 -15 -13 13 -3 88 17 127 19 38 38 56 27 26z m343 -86
c53 -14 107 -63 121 -109 9 -32 8 -44 -7 -76 -35 -75 -141 -85 -213 -19 -21
18 -41 31 -45 27 -3 -4 -6 2 -5 13 5 46 -3 74 -26 102 -14 17 -25 33 -25 36 0
3 18 6 39 6 45 0 73 8 66 20 -2 4 8 5 23 3 22 -4 24 -2 12 7 -13 10 -13 11 2
6 9 -2 35 -10 58 -16z m-317 -66 c15 -16 -40 -84 -68 -84 -23 0 -18 14 18 54
33 37 39 40 50 30z m32 -22 c-1 -24 -33 -68 -42 -58 -4 4 -1 11 7 16 8 5 11
12 7 16 -4 4 0 16 10 26 20 22 20 22 18 0z m-50 -230 c-3 -3 -11 0 -18 7 -9
10 -8 11 6 5 10 -3 15 -9 12 -12z"/>
<path d="M629 1048 c-1 -5 -2 -18 -2 -30 -1 -20 -29 -54 -82 -96 -17 -15 -45
-10 -45 8 0 5 -7 10 -15 10 -13 0 -12 -6 5 -40 34 -66 103 -67 147 -1 27 40
31 107 8 137 -8 10 -15 16 -16 12z"/>
<path d="M428 960 c-11 -37 -10 -70 3 -70 6 0 9 -6 6 -14 -3 -7 10 -28 28 -46
19 -18 32 -37 29 -42 -3 -5 -2 -7 3 -6 4 2 18 -7 31 -19 30 -31 44 -29 36 5
-8 34 -31 72 -44 72 -5 0 -1 -15 10 -32 32 -52 24 -51 -30 6 -34 36 -48 59
-44 70 3 9 1 16 -4 16 -6 0 -12 19 -14 43 -3 36 -4 38 -10 17z"/>
<path d="M590 720 c19 -13 30 -13 30 0 0 6 -10 10 -22 10 -19 0 -20 -2 -8 -10z"/>
<path d="M588 673 c6 -2 18 -2 25 0 6 3 1 5 -13 5 -14 0 -19 -2 -12 -5z"/>
<path d="M716 401 c-20 -22 -16 -36 14 -44 14 -4 23 1 31 16 9 19 8 20 -3 7
-14 -17 -48 -15 -48 2 0 5 7 8 15 5 8 -4 17 -1 21 5 5 7 2 8 -6 3 -10 -6 -12
-4 -7 8 8 22 4 21 -17 -2z"/>
<path d="M915 350 c-3 -6 1 -7 9 -4 18 7 21 14 7 14 -6 0 -13 -4 -16 -10z"/>
<path d="M983 349 c14 -8 17 -18 12 -52 -7 -45 -40 -96 -48 -75 -3 8 -6 6 -6
-4 -1 -21 -12 -23 -30 -5 -10 10 -11 8 -5 -7 4 -10 25 -26 46 -36 46 -20 114
-13 135 16 16 21 17 74 2 106 -13 31 -69 68 -100 68 -21 -1 -22 -2 -6 -11z"/>
<path d="M3340 769 l0 -57 -44 0 c-82 0 -116 -41 -116 -136 0 -110 36 -141
156 -130 l76 7 -6 30 c-3 16 -6 98 -6 182 l0 153 -30 4 -30 5 0 -58z m-19
-119 c16 -9 19 -22 19 -74 0 -49 -4 -65 -16 -70 -49 -19 -74 5 -74 71 0 38 22
83 41 83 6 0 19 -5 30 -10z"/>
<path d="M2608 802 c-128 -3 -128 -3 -128 -27 0 -21 5 -24 43 -27 l42 -3 3
-147 3 -148 34 0 34 0 3 148 3 147 42 -2 c39 -2 42 0 48 28 4 17 5 31 3 32 -1
1 -60 1 -130 -1z"/>
<path d="M1400 793 c-1 -5 -9 -83 -19 -175 l-17 -168 37 0 37 0 7 113 c9 126
6 128 54 -39 21 -71 34 -85 71 -77 10 2 25 41 45 113 31 118 45 125 45 25 0
-33 3 -77 6 -97 6 -35 9 -38 40 -38 21 0 34 5 34 13 0 6 -7 75 -15 152 -8 77
-15 150 -15 163 0 20 -5 22 -48 22 l-48 0 -29 -107 c-28 -103 -29 -106 -41
-77 -7 16 -21 64 -31 106 l-18 78 -47 0 c-27 0 -48 -3 -48 -7z"/>
<path d="M2093 783 c-19 -4 -23 -11 -23 -39 0 -24 -5 -34 -15 -34 -9 0 -15 -9
-15 -25 0 -16 6 -25 15 -25 12 0 15 -17 15 -94 0 -87 2 -96 22 -110 24 -17 75
-21 96 -8 18 12 4 40 -21 44 -20 3 -22 10 -25 85 -3 77 -2 82 19 85 12 2 26
13 30 26 7 20 5 22 -21 22 -28 0 -30 2 -30 40 0 41 -1 42 -47 33z"/>
<path d="M1865 709 c-45 -14 -69 -54 -73 -124 -2 -47 1 -67 17 -92 34 -53 133
-69 187 -28 17 13 18 15 3 30 -13 13 -21 14 -44 5 -37 -14 -71 -6 -85 20 -12
22 -5 41 13 39 7 -1 41 -1 76 0 l64 1 -7 43 c-9 55 -30 85 -71 103 -38 16 -38
16 -80 3z m75 -82 c0 -20 -4 -22 -40 -19 -45 5 -49 13 -20 42 16 16 25 18 40
10 11 -6 20 -21 20 -33z"/>
<path d="M2297 705 c-62 -16 -71 -25 -51 -53 14 -21 17 -21 44 -7 38 19 66 19
74 -1 11 -28 7 -34 -24 -34 -48 0 -99 -26 -110 -56 -14 -36 -4 -80 23 -99 26
-18 98 -20 115 -3 9 9 15 9 24 0 7 -7 19 -12 28 -12 19 0 44 37 30 45 -6 3
-10 42 -10 85 0 92 -13 128 -49 136 -14 3 -30 7 -36 8 -5 2 -32 -2 -58 -9z
m73 -169 c0 -48 -62 -63 -68 -17 -4 26 12 41 46 41 17 0 22 -6 22 -24z"/>
<path d="M2770 709 l-25 -9 3 -118 c2 -64 5 -122 7 -128 2 -6 17 -9 34 -6 l30
4 3 97 c3 96 3 96 30 99 35 4 58 57 28 65 -10 3 -28 -2 -40 -10 -19 -13 -23
-13 -33 0 -9 11 -19 12 -37 6z"/>
<path d="M3855 712 c-11 -2 -24 -8 -29 -13 -6 -5 -15 -4 -22 2 -7 6 -23 9 -36
7 -23 -3 -23 -5 -23 -130 l-1 -128 33 0 33 0 0 88 c0 94 8 112 47 112 16 0 25
7 29 26 8 30 -3 42 -31 36z"/>
<path d="M2942 695 c-33 -14 -34 -21 -10 -52 7 -8 16 -7 38 4 41 20 74 14 78
-14 3 -18 -1 -23 -20 -23 -94 0 -148 -62 -113 -130 8 -15 22 -30 30 -34 24 -9
88 -7 104 3 9 6 22 4 36 -5 19 -13 24 -12 40 6 14 16 16 23 7 32 -7 7 -12 46
-12 100 0 75 -3 91 -20 108 -24 24 -107 27 -158 5z m106 -167 c-3 -29 -6 -33
-33 -33 -24 0 -31 5 -33 24 -4 27 12 41 46 41 20 0 23 -4 20 -32z"/>
<path d="M3501 682 c-51 -51 -49 -162 5 -213 21 -20 36 -24 82 -23 31 0 67 6
80 12 19 11 20 16 11 33 -8 16 -16 19 -32 14 -52 -16 -74 -16 -90 0 -10 9 -17
25 -17 35 0 15 8 18 43 18 109 -1 107 -1 107 37 0 43 -23 90 -49 105 -11 5
-41 10 -66 10 -37 0 -52 -5 -74 -28z m103 -28 c9 -8 16 -24 16 -34 0 -16 -6
-18 -37 -14 -20 2 -39 6 -41 8 -9 9 10 45 26 49 9 3 18 5 19 6 1 0 9 -6 17
-15z"/>
<path d="M416 691 c-3 -5 -22 -12 -41 -15 -19 -4 -35 -11 -35 -16 0 -6 -6 -10
-12 -10 -7 0 -26 -11 -43 -24 l-30 -25 53 25 c29 14 75 30 102 37 28 6 50 17
50 24 0 15 -36 18 -44 4z"/>
<path d="M375 430 c-13 -15 -15 -24 -8 -31 8 -8 13 -7 18 2 5 8 4 10 -3 5 -16
-10 -15 2 2 19 7 8 17 11 21 7 5 -4 5 -1 1 6 -9 16 -10 16 -31 -8z"/>
<path d="M258 403 c7 -3 16 -2 19 1 4 3 -2 6 -13 5 -11 0 -14 -3 -6 -6z"/>
<path d="M315 391 c19 -8 18 -9 -5 -14 -22 -5 -21 -5 4 -4 39 3 48 27 9 26
-24 0 -25 -2 -8 -8z"/>
<path d="M232 321 c12 -22 29 -41 36 -41 20 0 14 25 -11 46 -43 38 -49 36 -25
-5z"/>
<path d="M26 275 c-3 -9 -5 -31 -5 -48 1 -27 3 -24 9 13 8 48 6 61 -4 35z"/>
<path d="M257 249 c3 -9 0 -20 -6 -23 -6 -4 -11 -13 -11 -19 1 -16 40 31 40
47 0 7 -6 13 -14 13 -8 0 -11 -7 -9 -18z"/>
<path d="M36 177 c3 -10 9 -15 12 -12 3 3 0 11 -7 18 -10 9 -11 8 -5 -6z"/>
<path d="M236 155 c-11 -8 -15 -15 -9 -15 19 0 43 12 43 21 0 13 -12 11 -34
-6z"/>
<path d="M180 123 c8 -3 23 -15 35 -25 21 -20 88 -58 102 -58 4 0 -16 14 -45
31 -29 16 -56 37 -59 44 -3 8 -15 15 -27 14 -14 0 -16 -2 -6 -6z"/>
</g>
</svg>
